<?xml version="1.0" encoding="utf-8"?>
<!-- Generator: Adobe Illustrator 18.1.1, SVG Export Plug-In . SVG Version: 6.00 Build 0)  -->
<svg version="1.1" id="Layer_1" xmlns="http://www.w3.org/2000/svg" xmlns:xlink="http://www.w3.org/1999/xlink" x="0px" y="0px"
	 viewBox="0 0 169.8 247.5" style="enable-background:new 0 0 169.8 247.5;" xml:space="preserve">
<style type="text/css">
	.st0{fill:none;stroke:#000000;stroke-width:2;stroke-miterlimit:10;}
	.st1{fill:#FFFFFF;}
</style>
<g>
	<path d="M78.7,31.6c10.4,0,19.1,4.4,26.3,13.1c6.5,8,9.8,17.6,9.8,28.6c0,2.5-0.2,4.9-0.5,7.2c0,0,0,0.1,0,0.1l-20.3,29.6l-14.3,21
		l0-0.1l-4.6-10.2c-0.7-1.8-2.1-3.2-3.9-4.2c-2-1.1-3.9-1.7-6-1.7H49.6v48.2h-9.8c-7.7,0-11.5-3.7-11.5-11.1V42.7
		c0-7.4,3.8-11.1,11.5-11.1H78.7z M49.6,93.6h29.1c3.6,0,6.9-1.8,9.8-5.3c3.4-4,5.1-9,5.1-15c0-6.1-1.7-11.1-5.1-15.2
		c-2.8-3.4-6.1-5.2-9.8-5.2H49.6V93.6z"/>
	<g>
		<path class="st0" d="M78.7,31.6c10.4,0,19.1,4.4,26.3,13.1c6.5,8,9.8,17.6,9.8,28.6c0,2.5-0.2,4.9-0.5,7.2c0,0,0,0.1,0,0.1
			l-20.3,29.6l-14.3,21l0-0.1l-4.6-10.2c-0.7-1.8-2.1-3.2-3.9-4.2c-2-1.1-3.9-1.7-6-1.7H49.6v48.2h-9.8c-7.7,0-11.5-3.7-11.5-11.1
			V42.7c0-7.4,3.8-11.1,11.5-11.1H78.7z"/>
		<path class="st0" d="M49.6,93.6h29.1c3.6,0,6.9-1.8,9.8-5.3c3.4-4,5.1-9,5.1-15c0-6.1-1.7-11.1-5.1-15.2c-2.8-3.4-6.1-5.2-9.8-5.2
			H49.6V93.6z"/>
	</g>
</g>
<g id="letter_c">
	<path d="M74,177.1c0,4.9,2.1,9.1,6.2,12.8c4.4,4,9.8,6,16.3,6c6.5,0,12-2,16.5-6.1c0.9-0.8,1.6-1.5,2.1-2.1c4-5,8.9-6,14.5-3
		l8.9,4.7c-3.1,7.1-6.9,12.6-11.4,16.6c-8.5,7.5-18.7,11.2-30.5,11.2c-11.9,0-22-3.7-30.4-11.2c-8.9-8-13.4-17.6-13.4-28.8V171v-0.1
		l59.6-87.4c0,0,0,0,0.1,0c5.3,1.9,10.2,4.8,14.6,8.7c4.5,4,8.4,9.5,11.5,16.4l-9,4.7c-5.7,2.9-10.5,1.9-14.5-2.9
		c-0.7-0.8-1.4-1.6-2.1-2.2c-3.7-3.3-8.1-5.3-13.4-5.8c0,0-0.1,0-0.1,0L74,139.7v0.1V177.1z"/>
	<g>
		<path class="st0" d="M74,177.1c0,4.9,2.1,9.1,6.2,12.8c4.4,4,9.8,6,16.3,6c6.5,0,12-2,16.5-6.1c0.9-0.8,1.6-1.5,2.1-2.1
			c4-5,8.9-6,14.5-3l8.9,4.7c-3.1,7.1-6.9,12.6-11.4,16.6c-8.5,7.5-18.7,11.2-30.5,11.2c-11.9,0-22-3.7-30.4-11.2
			c-8.9-8-13.4-17.6-13.4-28.8V171v-0.1l59.6-87.4c0,0,0,0,0.1,0c5.3,1.9,10.2,4.8,14.6,8.7c4.5,4,8.4,9.5,11.5,16.4l-9,4.7
			c-5.7,2.9-10.5,1.9-14.5-2.9c-0.7-0.8-1.4-1.6-2.1-2.2c-3.7-3.3-8.1-5.3-13.4-5.8c0,0-0.1,0-0.1,0L74,139.7v0.1V177.1z"/>
	</g>
</g>
<g id="line">
	<path class="st1" d="M1.3,246.3L168.4,1.5L1.3,246.3z"/>
	<path class="st0" d="M1.3,246.3L168.4,1.5L1.3,246.3z"/>
</g>
</svg>
